<?xml version="1.0" encoding="UTF-8" standalone="no"?>
<svg
   xmlns="http://www.w3.org/2000/svg"
   height="16"
   width="16"
   viewBox="0 0 16 16">
  <path
     style="fill:#df7e08;fill-opacity:1;fill-rule:evenodd;stroke:none;stroke-width:0.17576361;stroke-linecap:butt;stroke-linejoin:miter;stroke-miterlimit:4;stroke-dasharray:none;stroke-opacity:1;paint-order:stroke fill markers"
     d="m 9.2750174,13.945041 -0.1139752,1.85074 C 16.551064,14.98685 18.492655,5.8702074 12.077865,2.6117176 L 12.639348,0.99229471 9.3640223,2.3903575 10.756037,6.0136716 11.374709,4.2940093 c 4.591485,2.9296436 2.708209,9.0337617 -2.0996916,9.6510317 z"
     id="Arrow"/>
  <path
     style="fill:#353535;fill-opacity:1;fill-rule:evenodd;stroke:#ffffff;stroke-width:0.40000001;stroke-linecap:butt;stroke-linejoin:round;stroke-miterlimit:4;stroke-dasharray:none;stroke-opacity:1;paint-order:stroke markers fill"
     d="M 9.0617853,0.29222423 C 8.0707349,0.16859263 7.555024,0.24030806 6.9078877,0.30390033 L 6.7296145,2.3163814 C 5.9431596,2.4845217 5.6056673,2.6357848 4.9419091,3.0525891 L 3.3284835,1.7412885 C 2.3859574,2.343711 2.1043396,2.8574832 1.7576293,3.3401354 L 3.0088572,4.8806035 C 2.7167591,5.4242585 2.4551245,5.9984672 2.3173892,6.6969413 L 0.31848324,6.8970907 c -0.14979715,0.8297347 -0.10378452,1.5510051 0.02528,2.2573307 L 2.3699468,9.3195428 c 0.054467,0.6285299 0.2908422,1.2053652 0.7087588,1.8123322 l -1.2532248,1.532799 c 0.4810566,0.777048 1.0546844,1.245024 1.5981319,1.651216 l 1.5339326,-1.301629 c 0.6291915,0.370514 1.0202719,0.530596 1.7547775,0.685842 l 0.1935681,2.004812 c 0.7479043,0.09389 1.4559793,0.09757 2.1771802,-0.01167 L 9.0947118,9.5253587 C 5.4643902,10.901221 5.3192714,5.1152151 9.0637849,6.3453499 Z"
     id="Cog"/>
</svg>
